<svg xmlns="http://www.w3.org/2000/svg" viewBox="0 0 300 100"><path d="M111.35 7.58l.01.13.05-.17-.06.04zM2.6 52.09l8.24 3.83.7-.29-.69.29 62.3.38-10.56 23.81 24.94 11.54 23.82-84.11zm74.57-4.84l-3.63 7.51-55.19-.34 68.46-28.88zm34.19-39.54L87.58 91.65 116 55.29zm-.72 8.13l3.76 39-23.21 29.67zm27.85 26.79v-2.32l1.77-.25 8.24-21.66h3.43l8.12 21.66 1.75.25v2.32h-7.31v-2.32l1.78-.31-1.45-4.13h-9.37L144 40l1.78.31v2.32zm8-9.75h7.26l-3.34-9.39-.21-.6h-.15l-.22.61zM171.37 43a15.8 15.8 0 01-3.49-.37 19.86 19.86 0 01-3.34-1.12V37h2.74l.62 2.57a8.08 8.08 0 001.64.54 9 9 0 001.8.17 4.07 4.07 0 002.68-.7 2.19 2.19 0 00.81-1.73 2.08 2.08 0 00-.83-1.66 7.21 7.21 0 00-3.14-1.19 11.26 11.26 0 01-4.77-2 4.25 4.25 0 01-1.55-3.41 4.53 4.53 0 01.82-2.64 5.68 5.68 0 012.32-1.95 8.84 8.84 0 013.66-.7 12.89 12.89 0 013.55.44 9.43 9.43 0 012.63 1.26l.13 4.34h-2.72l-.54-2.39a4.14 4.14 0 00-1.27-.61 6.14 6.14 0 00-1.7-.21 3.74 3.74 0 00-2.32.65 2 2 0 00-.88 1.66 2 2 0 00.26 1 2.34 2.34 0 001 .78 10.76 10.76 0 002.23.72 12 12 0 015.13 2.17 4.37 4.37 0 011.5 3.43 5 5 0 01-1.72 3.87Q175 43 171.37 43zm17.03 0a15.65 15.65 0 01-3.48-.37 19.67 19.67 0 01-3.35-1.12V37h2.74l.61 2.57a8 8 0 001.65.54 9 9 0 001.8.17 4.11 4.11 0 002.68-.7 2.18 2.18 0 00.77-1.73 2.1 2.1 0 00-.82-1.66 7.25 7.25 0 00-3.1-1.18 11.26 11.26 0 01-4.77-2 4.28 4.28 0 01-1.55-3.41 4.53 4.53 0 01.82-2.64 5.75 5.75 0 012.28-1.96 8.87 8.87 0 013.66-.7 13 13 0 013.56.44 9.37 9.37 0 012.62 1.26l.13 4.34h-2.72l-.53-2.39a4.31 4.31 0 00-1.28-.61 6 6 0 00-1.69-.21 3.81 3.81 0 00-2.32.65 2 2 0 00-.88 1.66 1.88 1.88 0 00.27 1 2.26 2.26 0 001 .78 11.39 11.39 0 002.23.72 11.93 11.93 0 015.13 2.17 4.38 4.38 0 011.51 3.43 5 5 0 01-1.73 3.87c-1 1.06-2.81 1.59-5.24 1.59zm17.96 0a8.2 8.2 0 01-4.4-1.14 7.66 7.66 0 01-2.87-3.15 10.24 10.24 0 01-1-4.64v-.72a10.12 10.12 0 011-4.64 8.26 8.26 0 012.81-3.2 7 7 0 014-1.17 7.76 7.76 0 014.08 1 6.17 6.17 0 012.48 2.79 10.16 10.16 0 01.84 4.28v2.19h-11.38v.09a7.24 7.24 0 00.6 2.79 4.43 4.43 0 001.48 1.91 4.36 4.36 0 002.48.7 8.53 8.53 0 002.79-.44 7.23 7.23 0 002.2-1.23l1.28 2.39a7.88 7.88 0 01-2.62 1.54 10.57 10.57 0 01-3.77.65zM202 31.87h7.63v-.44a5.38 5.38 0 00-.41-2.2 3.42 3.42 0 00-1.24-1.5 3.73 3.73 0 00-2.08-.54 3.16 3.16 0 00-1.9.6 4.37 4.37 0 00-1.35 1.63 7.25 7.25 0 00-.7 2.32zm13.7 10.76v-2.32l2.59-.48V27.46l-2.68-.46v-2.35h6.07l.21 2.36a6 6 0 012.21-2 6.67 6.67 0 013.1-.7 5.44 5.44 0 013 .82 4.74 4.74 0 011.91 2.43 6.53 6.53 0 012.23-2.38 5.86 5.86 0 013.21-.87 5.33 5.33 0 014.31 1.86c1.07 1.24 1.58 3.11 1.55 5.63v8l2.59.47v2.33h-8.81v-2.3l2.55-.47v-8a5.49 5.49 0 00-.84-3.47 3.09 3.09 0 00-2.49-1 3.27 3.27 0 00-2.51 1.05 4.65 4.65 0 00-1.13 2.59v8.85l2.49.47v2.33h-8.71V40.3l2.49-.47v-8a5.54 5.54 0 00-.85-3.43 3.07 3.07 0 00-2.51-1.06 4.27 4.27 0 00-2.26.56 3.74 3.74 0 00-1.42 1.5v10.39l2.53.48v2.32zm42.46.37a6.37 6.37 0 01-3-.66 5.55 5.55 0 01-2.09-2l-.32 2.27h-3.22V19.53l-2.68-.48v-2.32h6.4v10a5.42 5.42 0 012-1.78 6.27 6.27 0 012.85-.62 6 6 0 013.77 1.2 7.55 7.55 0 012.38 3.35 14.08 14.08 0 01.84 5.06v.34a11.6 11.6 0 01-.84 4.58 6.85 6.85 0 01-2.38 3 6.34 6.34 0 01-3.71 1.14zm-1-3a3.6 3.6 0 003.21-1.54 7.43 7.43 0 001-4.19v-.35a12 12 0 00-.45-3.47 5 5 0 00-1.4-2.32 3.49 3.49 0 00-2.4-.84 4 4 0 00-2.32.68 4.81 4.81 0 00-1.55 1.8v7.81a4.75 4.75 0 001.55 1.78 4.08 4.08 0 002.34.64zm9.94 2.63v-2.32l2.61-.48v-20.3l-2.71-.48v-2.32h6.39v23.12l2.61.48v2.32zm15.27 7.27a8.32 8.32 0 01-1.11-.1l-1.06-.2.41-2.86h1.45a2.3 2.3 0 001.73-.71 6 6 0 001.19-2l.67-1.66-6.27-15.16-2-.28v-2.28h8.09V27l-2.17.33 3.3 8.7.71 1.94h.1l3.92-10.64-2.25-.33v-2.35h7.82V27l-1.91.27-7 18.11a10.75 10.75 0 01-1.23 2.32 5.59 5.59 0 01-1.8 1.62 5.25 5.25 0 01-2.59.58zm-139.5 30.92V78.5l2.67-.48V59.46l-2.67-.46v-2.34h18.5v6.05h-3l-.31-3.16h-8.84v7.88H158v2.9h-8.74v7.74l2.68.48v2.32zm20.74 0V78.5l2.61-.48V65.65l-2.68-.48v-2.32h6.4V78l2.61.48v2.32zm2.45-22.24v-3.69h3.86v3.69zm8.52 22.24V78.5l2.59-.48V65.65l-2.67-.48v-2.32h6.06l.22 2.64A6.52 6.52 0 01183 63.3a6.07 6.07 0 013.09-.78 5.75 5.75 0 014.41 1.7c1 1.14 1.55 2.91 1.55 5.3V78l2.59.48v2.32h-8.85v-2.29l2.53-.48v-8.48a4.53 4.53 0 00-.87-3.14 3.52 3.52 0 00-2.66-.93 4.32 4.32 0 00-2.32.62 4.58 4.58 0 00-1.61 1.69V78l2.49.48v2.32zm28.07.35a6.06 6.06 0 01-4.27-1.38 5.08 5.08 0 01-1.48-3.87 4.87 4.87 0 01.93-3 6.05 6.05 0 012.72-2 11.73 11.73 0 014.31-.72h3v-1.59a3.15 3.15 0 00-.93-2.41 3.7 3.7 0 00-2.63-.87 5.7 5.7 0 00-1.79.25 5.22 5.22 0 00-1.4.69l-.37 2.47h-2.8v-4.27A9.48 9.48 0 01200.8 63a12.13 12.13 0 013.59-.51 8.06 8.06 0 015.26 1.59 5.55 5.55 0 011.92 4.53v9.65l1.78.22v2.32h-5.07c-.1-.43-.2-.84-.27-1.22a8.93 8.93 0 01-.16-1.14 7.68 7.68 0 01-2.27 1.94 5.83 5.83 0 01-2.93.79zm.71-3a5.39 5.39 0 002.69-.69 4.44 4.44 0 001.77-1.67v-3.13h-3a4.32 4.32 0 00-3.09 1 3 3 0 00-1.05 2.23 2.11 2.11 0 00.7 1.7 3.09 3.09 0 001.98.57zm12.29 2.65V78.5l2.59-.48V65.65l-2.68-.48v-2.32h6.07l.22 2.64a6.35 6.35 0 012.24-2.19 6 6 0 013.09-.78 5.78 5.78 0 014.42 1.7q1.54 1.71 1.55 5.3V78l2.59.48v2.32h-8.86v-2.29l2.52-.51v-8.45a4.55 4.55 0 00-.86-3.14 3.52 3.52 0 00-2.66-.93 4.41 4.41 0 00-2.32.62 4.66 4.66 0 00-1.56 1.69V78l2.49.48v2.32zm30.23.35a8 8 0 01-4.31-1.17 7.72 7.72 0 01-2.83-3.19 10.49 10.49 0 01-1-4.64v-.65a10.48 10.48 0 011-4.64 7.63 7.63 0 012.81-3.2 7.76 7.76 0 014.35-1.19 9.75 9.75 0 013.92.73 8 8 0 012.77 1.9l.06 4.57h-2.88l-.58-3.18a4.06 4.06 0 00-1.3-.83 4.6 4.6 0 00-1.8-.33 3.94 3.94 0 00-2.45.78 5.14 5.14 0 00-1.6 2.19 8.32 8.32 0 00-.56 3.15v.65a9 9 0 00.54 3.3 4.68 4.68 0 001.55 2.09 4.21 4.21 0 004.88-.12 3.73 3.73 0 001.26-2.32H253v.1a6.55 6.55 0 01-1 3 6 6 0 01-2.36 2.17 8.2 8.2 0 01-3.76.83zm18.19 0a8.24 8.24 0 01-4.38-1.17 7.79 7.79 0 01-2.89-3.16 10.24 10.24 0 01-1-4.64v-.71a10.14 10.14 0 011-4.65 8.34 8.34 0 012.81-3.2 7 7 0 014-1.17 7.69 7.69 0 014.06 1 6.24 6.24 0 012.49 2.79 10 10 0 01.84 4.28v2.22h-11.34l-.06.09a7.07 7.07 0 00.61 2.79 4.43 4.43 0 001.54 1.91 4.28 4.28 0 002.48.7 8.53 8.53 0 002.79-.44 7.24 7.24 0 002.19-1.22L270.5 79a8.12 8.12 0 01-2.63 1.55 10.42 10.42 0 01-3.8.62zm-4.34-11.11h7.63v-.44a5.38 5.38 0 00-.41-2.2 3.22 3.22 0 00-1.24-1.49 3.64 3.64 0 00-2.08-.55 3.23 3.23 0 00-1.9.6 4.53 4.53 0 00-1.35 1.63 7.06 7.06 0 00-.69 2.32z" fill="#202636"/></svg>