<svg xmlns="http://www.w3.org/2000/svg" viewBox="0 0 24 24"><path d="M12 .48C5.636.48.479 5.638.479 12c0 6.364 5.158 11.521 11.521 11.521 6.361 0 11.52-5.158 11.52-11.521C23.52 5.638 18.361.48 12 .48zm1.075 4.159c1.123 0 1.453.652 1.453 1.397 0 .93-.744 1.79-2.015 1.79-1.063 0-1.57-.534-1.538-1.418 0-.745.623-1.769 2.1-1.769zM10.198 18.9c-.768 0-1.328-.467-.792-2.513l.88-3.63c.152-.581.178-.814 0-.814-.229 0-1.226.401-1.814.797l-.383-.628c1.866-1.559 4.012-2.473 4.93-2.473.768 0 .895.907.512 2.304l-1.008 3.816c-.179.674-.102.907.077.907.23 0 .984-.278 1.726-.863l.434.583c-1.816 1.814-3.794 2.513-4.561 2.513z"/></svg>